<svg width="148" height="14" viewBox="0 0 148 14" fill="none" xmlns="http://www.w3.org/2000/svg">
<path d="M147.785 9.09571L143.096 4.21505L138.215 8.90429L142.904 13.7849L147.785 9.09571ZM0.95133 5.57242C0.62119 5.8896 0.610694 6.41435 0.927886 6.74448L6.09669 12.1243C6.41388 12.4544 6.93864 12.4649 7.26876 12.1477C7.5989 11.8306 7.6094 11.3058 7.2922 10.9757L2.69771 6.19362L7.47976 1.59912C7.8099 1.28194 7.82039 0.757183 7.5032 0.427051C7.18603 0.0969191 6.66127 0.0864228 6.33113 0.403607L0.95133 5.57242ZM143.017 8.17122L1.54222 5.34139L1.50906 6.99895L142.983 9.82878L143.017 8.17122Z" fill="black"/>
</svg>
