<svg width="164" height="133" viewBox="0 0 164 133" fill="none" xmlns="http://www.w3.org/2000/svg">
<path d="M85.6693 35.356C86.6256 35.4091 85.3179 31.092 86.2539 31.2814C87.8553 31.7053 89.5769 32.1142 90.2175 30.5751C90.5619 29.7869 93.2203 30.1587 92.9081 28.7757C92.5958 27.3928 95.8948 26.2105 96.6075 26.4857C99.242 27.5043 99.1822 25.4819 99.1902 22.9762C101.472 22.8126 103.23 25.5116 103.526 22.9762C103.574 22.5375 107.225 21.45 107.922 21.4203C113.135 21.16 109.467 23.8238 109.604 19.5039L113.258 18.0094L115.388 17.7789C117.134 17.0354 117.012 20.24 119.358 17.7789C121.48 19.8385 121.551 20.7381 126.804 18.0094C126.275 18.8198 125.891 19.4072 125.458 20.0541C127.668 21.7865 128.533 19.0503 130.679 18.7975C126.291 22.7977 128.902 25.9578 130.943 29.3854C131.592 30.4636 131.128 32.2778 130.767 33.6607C130.359 35.2073 129.31 36.6349 128.878 38.1591C128.205 40.5384 127.829 42.9847 127.172 46.1372L124.77 43.6167C123.291 44.8049 121.89 46.0737 120.574 47.4161C120.093 47.9514 120.302 49.0147 120.246 49.4088L130.823 50.1523L130.903 49.6913C130.597 49.6018 130.299 49.4874 130.015 49.3493C129.712 49.1246 129.43 48.8758 129.174 48.6058L131.712 47.1856C132.793 50.1597 132.633 48.7099 137.213 49.4088C137.662 49.4757 138.07 54.4499 138.543 54.2789C141.529 56.3608 144.38 58.978 148.392 60.4131C147.287 61.7365 145.893 62.6437 148.071 63.9374C148.728 64.3166 148.504 66.0119 148.688 67.1123L149.913 67.6551C150.27 67.0992 150.565 66.5113 150.794 65.9003C151.651 62.666 150.602 66.0342 152.972 63.9374C154.253 62.8072 158.43 62.6585 159.695 63.9374C160.808 65.0676 157.439 69.8188 158.376 70.9935C160.178 73.3134 162.861 67.2858 162.973 69.7989C163.125 73.1745 163.186 75.5514 159.695 77.4548C156.724 79.0683 153.292 79.4401 150.794 77.4548C148.52 75.6481 150.273 73.12 147.935 71.1125C149.032 73.7595 146.334 74.6815 144.82 76.3172C144.468 76.7039 144.492 77.3879 144.02 77.4548L139.664 79.9234C139.167 80.0051 138.198 80.191 137.213 80.2951C136.228 80.3992 136.558 76.5775 135.605 76.3172C133.364 78.4437 130.641 79.2817 129.062 78.4437C130.015 75.5211 127.58 77.0533 126.724 76.5328C124.578 75.2317 125.963 72.9193 124.77 70.9935C124.586 70.6961 124.144 69.2043 124.4 69.2787C123.6 67.5463 119.951 72.3096 119.358 70.9935L117.755 67.6922H115.388L115.949 71.4535C115.949 73.8253 113.258 71.6779 113.258 73.9606C113.34 74.5777 112.37 76.8539 112.198 77.4548C111.325 79.2021 108.971 78.6147 107.922 80.2728C106.873 81.9309 106.048 83.9905 103.526 84.3994C103.358 84.3994 103.094 84.4887 103.062 84.5928C102.013 87.4479 98.7215 87.1877 96.6075 88.5558C96.1511 88.8532 95.1982 88.474 94.3494 88.3996L92.9081 93.6044C91.0423 92.4222 88.56 92.4593 88.52 89.8867C87.769 89.7809 87.0126 89.7114 86.2539 89.6785C86.1498 89.4629 82.8157 90.8384 82.3833 89.8867C79.7488 91.2846 79.8639 89.8421 79.3514 92.2065L76.1724 94.2289H75.1003C74.2996 95.2848 74.2106 95.5857 73.2177 96.3292C70.7354 98.188 71.9285 96.9949 73.2177 98.8165C74.2667 100.304 70.0468 99.8731 70.7754 101.531V105.693L68.2211 103.092C67.6608 102.572 66.9597 103.299 65.528 105.693C65.3278 97.8337 59.8143 101.278 59.4139 101.531C56.4992 103.368 58.0063 102.347 56.0525 105.693C55.4177 106.758 52.7226 106.422 51.7657 107.253C50.2764 108.47 48.9853 111.726 48.7695 113.556C48.1289 117.958 47.0094 119.037 45.9684 123.38C45.7306 124.051 44.7497 125.958 44.2627 126.501C44.1907 126.598 42.4691 125.55 42.4611 125.46C42.2963 124.71 42.2963 124.13 42.4611 123.38C44.0145 119.402 43.462 121.502 42.4611 117.137C42.4194 116.823 43.6382 113.857 43.7448 113.556C43.8514 113.255 44.0283 111.125 44.2627 110.895C46.8171 108.709 43.454 108.481 44.2627 105.693C44.3989 105.21 44.4014 100.525 43.7448 100.065C44.6737 96.1833 46.3367 96.0655 44.2627 94.2289L41.5802 91.5299C41.8605 89.8198 40.9351 91.1135 38.637 89.6785C37.2117 88.7863 37.0853 88.0856 35.2756 87.0595C35.708 85.7063 31.8351 88.5558 26.1579 89.6785C24.2601 84.3994 27.8234 83.5301 24.4282 82.3777C27.1108 80.675 28.3721 80.2397 29.1847 79.1873C29.3448 78.9419 24.9487 77.321 24.2601 76.3172C24.7005 73.1795 27.7594 72.2575 24.4282 72.4211C26.1899 70.763 26.0858 69.8039 23.4193 67.6105C22.9629 69.7816 23.5554 70.6589 23.1871 72.4211H20.1978L18.831 70.9935V69.7989C21.7538 69.3453 22.3063 69.0083 21.7698 66.3316C21.3934 64.4728 20.8409 63.2013 18.831 63.1046C17.2565 63.0419 18.6461 63.4571 17.1575 63.9374C12.2489 65.5509 17.3833 64.4281 12.3546 65.9003C13.5793 65.406 10.0025 63.7101 11.1679 63.1046C13.9385 61.4763 11.481 63.2459 14.0353 61.3797C15.5167 60.3015 15.6361 60.2718 17.1575 61.3797C19.5597 63.1121 20.6567 62.7329 21.4335 60.1231C21.6016 59.5729 22.5225 59.1342 23.1871 58.7996C24.7886 58.004 26.4942 57.4166 27.9916 56.5021C28.6562 56.1006 28.8964 55.1042 29.473 54.1376L24.2601 53.7064V53.171H28.1757C27.4138 51.9526 26.577 50.7759 25.6694 49.6467C24.6445 48.5314 24.7806 47.7804 26.1579 47.1782C28.2798 46.2413 29.1286 44.7989 28.5601 42.6054C28.448 42.1742 29.0325 41.5794 29.3048 41.0589C29.513 40.65 29.8973 40.2633 29.9294 39.8469C29.8652 38.8314 30.0457 37.8154 30.4579 36.8728C29.9614 36.2111 29.4649 35.5493 28.5121 34.3002L31.8351 34.8281C32.1635 33.0882 33.0443 31.2814 30.2897 30.4636C30.1372 30.387 31.9 31.5028 31.8351 31.3535C30.9944 29.807 32.8441 31.2666 31.8351 29.3854C33.4927 30.2479 32.708 28.2776 34.1173 29.3854C35.8709 30.7164 34.3545 29.2516 35.8358 28.7757C36.5645 28.5304 38.4122 28.1958 39.7575 30.4636C40.7744 30.7684 46.3527 31.3261 47.6499 31.2814C49.6838 31.2071 46.0004 25.6752 48.0423 26.4857C48.3465 26.6046 49.1713 25.7793 49.6437 25.3034C50.3964 24.5599 51.0611 23.7569 51.7657 22.9762C52.3903 24.0246 53.0709 25.0506 53.5994 26.1362C53.7034 26.6722 53.7034 27.2211 53.5994 27.7571C56.1058 27.8686 55.6173 29.6159 55.5773 30.5751C57.6032 32.6049 60.0454 34.092 60.7341 36.0995C61.1665 37.3264 61.4547 38.8804 62.4156 39.5124C63.6888 40.3525 60.7901 38.0104 62.4156 38.1591C62.768 38.1591 65.2637 37.2669 65.528 36.4639C66.0485 34.8504 65.6987 36.4118 68.7175 38.1591L69.7665 40.5533C70.0307 41.1481 70.311 41.7504 70.4872 42.1296C69.6939 42.2636 68.9289 42.5146 68.2211 42.8731C68.0369 43.0218 68.5333 43.9512 68.7175 44.5163C69.4142 44.2338 70.319 44.1148 70.7754 43.639C72.1287 42.256 74.8751 42.6129 76.1724 41.0589C77.0452 42.3229 78.0222 44.2858 80.3764 43.639C81.1771 45.8696 77.717 43.3568 78.4617 45.3495C78.6859 45.9443 82.4794 48.0555 82.3833 48.5686C81.8948 51.2379 83.187 49.4311 84.6283 50.1523C84.9006 50.2861 84.4121 46.4495 84.6283 46.1372C85.7173 44.5238 84.8686 49.9069 86.2539 48.5686C86.9505 47.892 86.6142 46.338 88.52 46.1372C88.3198 45.3937 88.2397 44.9773 87.479 44.5163C86.5581 43.9512 86.3339 42.1296 84.6283 42.1296C86.0537 41.3191 84.9406 41.4753 85.373 40.5533C85.6773 39.8916 88.2077 39.096 87.479 38.1591C86.6488 37.1278 88.4717 37.3628 87.479 36.4639C86.9187 36.0096 86.3187 35.5992 85.6853 35.237L85.6693 35.356Z" fill="white"/>
<path d="M58.6878 1.55907C58.9164 2.37058 58.745 3.02603 59.2783 3.47861C59.7926 3.91558 61.0307 4.11845 62.0593 4.82073C63.1069 5.5386 63.945 6.72466 63.6783 7.53617C63.4117 8.34769 62.0212 8.76905 60.764 9.12799C59.5069 9.50253 58.364 9.79905 57.4878 9.4245C56.6116 9.04996 56.0021 8.00436 54.764 7.6142C53.5259 7.23966 51.6782 7.53617 51.5068 7.09921C51.3163 6.66224 52.8211 5.50739 53.2783 4.55542C53.7544 3.61906 53.2021 2.90118 53.564 2.71391C53.9259 2.54225 55.2021 2.90118 55.964 2.35497C56.7259 1.79316 56.9735 0.310584 57.4116 0.045282C57.8497 -0.22002 58.4593 0.731947 58.6878 1.55907Z" fill="white"/>
<path d="M24.4657 96.5227C24.6942 97.226 24.5228 97.7941 25.0562 98.1863C25.5704 98.565 26.8086 98.7408 27.8371 99.3495C28.8848 99.9716 35.5907 96.8203 35.3241 97.5236C35.0574 98.2269 27.799 102.771 26.5419 103.082C25.2847 103.407 24.1419 103.664 23.2657 103.339C22.3895 103.015 21.7799 102.109 20.5418 101.77C19.3037 101.446 17.4561 101.703 17.2847 101.324C17.0942 100.945 18.599 99.9446 19.0561 99.1195C19.5323 98.308 14.7939 95.3731 15.1558 95.2108C15.5177 95.062 20.9799 97.6859 21.7418 97.2125C22.5037 96.7256 22.7514 95.4407 23.1895 95.2108C23.6276 94.9808 24.2371 95.8059 24.4657 96.5227Z" fill="white"/>
<path d="M92.5123 99.6439C92.7812 100.347 96.3218 96.9773 96.9493 97.3695C97.5543 97.7482 95.2686 101.862 96.4787 102.471C97.7112 103.093 98.6972 104.121 98.3835 104.824C98.0697 105.527 95.0669 101.93 93.5879 102.241C92.1089 102.565 92.1313 106.785 91.1005 106.461C90.0697 106.136 89.3526 105.23 87.896 104.892C86.4394 104.567 84.2657 104.824 84.064 104.445C83.8399 104.067 85.6102 103.066 86.148 102.241C86.7083 101.429 86.0584 100.807 86.4842 100.645C86.91 100.496 88.4114 100.807 89.3077 100.334C90.2041 99.8468 90.4954 98.5619 91.0108 98.332C91.5262 98.102 92.2433 98.9271 92.5123 99.6439Z" fill="white"/>
<path d="M143.05 9.92918C143.279 10.7407 146.276 9.52336 146.81 9.97593C147.324 10.4129 145.393 12.4886 146.422 13.1908C147.47 13.9087 148.308 15.0948 148.041 15.9063C147.774 16.7178 146.386 12.8319 145.129 13.1908C143.872 13.5654 142.084 15.8439 141.207 15.4693C140.331 15.0948 138.524 17.6489 137.286 17.2587C136.048 16.8842 136.041 15.9063 135.869 15.4693C135.679 15.0324 137.184 13.8775 137.641 12.9255C138.117 11.9892 137.565 11.2713 137.927 11.084C138.289 10.9124 139.565 11.2713 140.327 10.7251C141.089 10.1633 141.336 8.6807 141.774 8.4154C142.212 8.1501 142.822 9.10206 143.05 9.92918Z" fill="white"/>
<path d="M117.197 85.8129C119.271 85.8129 121.289 85.7609 123.307 85.8129C125.869 85.9022 130.954 89.8131 130.402 91.9768C129.889 93.9769 127.799 95.8134 125.981 97.2633C124.588 98.3786 122.995 97.6797 121.177 96.8098C117.005 94.8394 115.964 92.4081 117.662 88.5045C117.974 87.7164 117.333 86.549 117.197 85.8129Z" fill="white"/>
<path d="M83.614 20.9524C82.6611 22.8484 81.3879 24.1868 78.8095 24.3503C77.4162 24.4396 76.0709 25.2872 74.7016 25.8374C73.8128 26.172 72.932 26.5363 72.0432 26.8932C71.9391 26.6776 71.835 26.4694 71.7389 26.2612L83.1575 20.3799L83.614 20.9524Z" fill="white"/>
<path d="M72.876 113.502C72.2941 118.791 71.7202 124.09 71.1544 129.399L70.1134 129.31C70.706 124.035 71.3012 118.764 71.8991 113.495L72.876 113.502Z" fill="white"/>
<path d="M89.7398 124.409C89.5876 126.685 89.5236 128.967 89.2193 131.22C89.1472 131.726 88.2424 132.135 87.7299 132.588C87.4817 131.971 86.9291 131.272 87.0413 130.752C87.6338 128.573 88.4346 126.439 89.1552 124.298L89.7398 124.409Z" fill="white"/>
<path d="M30.3644 16.2183C31.3173 17.7722 32.1341 18.7091 32.4063 19.7649C32.4944 20.1069 31.1652 20.7687 30.4765 21.252C29.7606 20.429 29.1705 19.5183 28.7229 18.5455C28.5627 18.1291 29.4756 17.4079 30.3644 16.2183Z" fill="white"/>
<path d="M81.8522 40.8663C77.9686 40.8663 74.9098 38.9777 71.8029 37.2081L72.2032 36.3828L81.8122 40.9258L81.8522 40.8663Z" fill="white"/>
<path d="M52.4409 18.9841L50.9755 27.9065L50.1027 27.7801L51.9043 18.9023L52.4409 18.9841Z" fill="white"/>
<path d="M69.3126 40.7401L72.8039 39.7214C72.9 40.1527 73.1802 40.9111 73.0761 40.9631C72.0352 41.4539 70.9301 41.8182 69.8731 42.2271L69.3126 40.7401Z" fill="white"/>
<path d="M6.34191 84.2588L0.368342 88.2292C0.248231 88.0731 0.120112 87.9244 0 87.7757L5.7974 83.5896L6.34191 84.2588Z" fill="white"/>
<path d="M17.2723 49.9672L20.6995 51.1196C19.6265 51.8632 18.7377 52.7182 18.5055 52.6067C17.7708 52.0682 17.1259 51.4318 16.5917 50.7181L17.2723 49.9672Z" fill="white"/>
</svg>
